<svg xmlns="http://www.w3.org/2000/svg" viewBox="272 391 470 364">
<path fill="#fff" d="M 564.906 411.414 C 577.26 410.577 597.331 411.184 610.434 411.159 L 696.621 411.098 C 708.463 411.161 717.008 411.169 725.936 420.141 C 739.262 433.535 734.706 459.09 716.659 465.659 C 707.572 468.966 692.093 467.918 681.946 467.884 L 613.459 467.67 C 598.659 467.644 573.774 466.429 560.017 470.054 C 529.142 478.187 534.762 511.137 524.813 534.37 C 517.562 551.306 510.956 559.467 497.672 571.761 C 511.009 583.79 517.608 592.473 524.861 609.074 C 533.42 628.073 529.801 655.341 548.962 668.276 C 563.207 677.892 590.616 675.321 607.567 675.267 L 679.727 675.027 C 693.907 674.986 713.823 672.489 724.436 682.429 C 741.884 698.769 733.708 728.917 709.309 731.169 C 693.904 732.59 677.702 731.984 662.394 731.975 L 568.311 731.893 C 553.34 732.068 537.116 727.286 524.03 720.165 C 501.567 708.176 485.097 687.39 478.564 662.78 C 473.565 643.37 475.777 626.417 457.475 611.345 C 441.711 598.362 423.342 599.805 404.26 599.787 C 397.831 599.781 385.962 599.161 379.76 600.032 C 349.145 604.333 353.727 624.189 352.526 645.773 C 350.274 667.565 358.97 704.348 345.663 722.606 C 337.311 734.064 314.821 734.595 305.135 724.888 C 298.166 717.903 295.817 711.698 295.391 701.671 C 294.782 687.312 295.461 673.55 295.346 659.24 C 295.032 626.217 292.539 597.748 316.026 571.336 C 348.076 535.293 384.053 544.479 426.299 542.789 C 448.338 541.908 467.86 529.049 473.146 507.125 C 475.32 498.106 476.458 487.771 479.097 478.822 C 482.921 465.825 489.439 453.778 498.226 443.467 C 515.524 423.517 538.886 413.346 564.906 411.414 z"/>
<path fill="#07C160" d="M 554.513 543.174 C 579.237 541.821 607.763 543.01 633.585 542.878 C 648.845 542.8 705.738 540.779 717.259 545.552 C 738.931 554.529 741.421 590.194 711.15 599.773 C 673.676 601.551 633.604 598.903 595.985 600.026 C 586.459 600.31 552.327 601.064 545.845 596.886 C 521.371 581.11 528.562 550.552 554.513 543.174 z"/>
</svg>
